<svg xmlns="http://www.w3.org/2000/svg" viewBox="0 0 128 128" role="img" aria-label="CNC Workpiece Calculator icon">
  <defs>
    <linearGradient id="g" x1="16" y1="16" x2="112" y2="112" gradientUnits="userSpaceOnUse">
      <stop offset="0" stop-color="#6ee7ff"/>
      <stop offset="1" stop-color="#a78bfa"/>
    </linearGradient>
    <filter id="s" x="-20%" y="-20%" width="140%" height="140%">
      <feDropShadow dx="0" dy="10" stdDeviation="10" flood-color="#000" flood-opacity="0.35"/>
    </filter>
  </defs>

  <rect x="10" y="10" width="108" height="108" rx="28" fill="url(#g)" filter="url(#s)"/>

  <!-- Simple “CNC” mark (geometric, no font dependency) -->
  <g fill="rgba(10,18,30,0.92)">
    <!-- C -->
    <path d="M52 44c-10 0-18 8-18 18s8 18 18 18c4 0 8-1 11-4l-4-5c-2 2-4 2-7 2-6 0-11-5-11-11s5-11 11-11c3 0 5 1 7 2l4-5c-3-2-7-4-11-4z"/>
    <!-- N -->
    <path d="M66 44h8l12 22V44h8v40h-8L74 62v22h-8V44z"/>
    <!-- C (small) -->
    <path d="M92 90c-8 0-14-6-14-14s6-14 14-14c3 0 6 1 9 3l-4 5c-1-1-3-2-5-2-4 0-7 3-7 8s3 8 7 8c2 0 4-1 5-2l4 5c-3 2-6 3-9 3z" opacity="0.9"/>
  </g>
</svg>
